<?xml version="1.0" encoding="utf-8"?>
<!-- Generator: Adobe Illustrator 21.1.0, SVG Export Plug-In . SVG Version: 6.00 Build 0)  -->
<svg version="1.1" id="Layer_1" xmlns="http://www.w3.org/2000/svg" xmlns:xlink="http://www.w3.org/1999/xlink" x="0px" y="0px"
	 viewBox="0 0 70 70" style="enable-background:new 0 0 23.4 19;" xml:space="preserve">
	 <g>
	 	<circle class="st0" style="fill:#fff;" cx="35" cy="35" r="35"/>
	 	<path class="st1" style="fill:#021421;" d="M53.4,14.8c-0.6-0.6-1.3-0.9-2.2-0.9c-0.8,0-1.6,0.3-2.2,0.9L35,28.9L20.9,14.8c-0.6-0.6-1.3-0.9-2.2-0.9
	 		c-0.8,0-1.6,0.3-2.2,0.9l-1.8,1.8c-0.6,0.6-0.9,1.3-0.9,2.2c0,0.8,0.3,1.6,0.9,2.2L28.9,35L14.8,49.1c-0.6,0.6-0.9,1.3-0.9,2.2
	 		c0,0.8,0.3,1.6,0.9,2.2l1.8,1.8c0.6,0.6,1.3,0.9,2.2,0.9c0.8,0,1.6-0.3,2.2-0.9L35,41.1l14.1,14.1c0.6,0.6,1.3,0.9,2.2,0.9
	 		c0.8,0,1.6-0.3,2.2-0.9l1.8-1.8c0.6-0.6,0.9-1.3,0.9-2.2c0-0.8-0.3-1.6-0.9-2.2L41.1,35l14.1-14.1c0.6-0.6,0.9-1.3,0.9-2.2
	 		c0-0.8-0.3-1.6-0.9-2.2L53.4,14.8z M35,35L35,35L35,35L35,35L35,35z"/>
	 </g>
</svg>
