<?xml version="1.0" encoding="utf-8"?>
<!-- Generator: Adobe Illustrator 21.1.0, SVG Export Plug-In . SVG Version: 6.00 Build 0)  -->
<svg version="1.1" id="Layer_1" xmlns="http://www.w3.org/2000/svg" xmlns:xlink="http://www.w3.org/1999/xlink" x="0px" y="0px"
	 viewBox="0 0 225 74.5" style="enable-background:new 0 0 23.4 19;" xml:space="preserve">
	 <g style="fill: #e41a23;">
	 	<path id="red" class="st0" d="M71.4,37.3c0-1.4,0.8-2.3,2.7-2.9c-0.2-1.4-0.4-2.8-0.5-4.1c-1.7,0.1-2.8-0.6-3.2-1.8
	 		c-0.5-1.4,0-2.4,1.8-3.6c-0.5-1.3-1.1-2.6-1.6-3.8c-1.8,0.5-3,0.1-3.7-1.1c-0.7-1.2-0.4-2.4,0.9-3.8c-0.8-1.1-1.7-2.2-2.5-3.3
	 		c-1.6,0.9-2.8,0.9-3.8,0c-1-0.9-1.1-2.1-0.2-4c-1.1-0.8-2.2-1.7-3.3-2.5c-1.6,1.4-2.6,1.6-3.8,0.9c-1.2-0.7-1.5-1.7-1.1-3.7
	 		c-1.3-0.5-2.6-1.1-3.8-1.6c-0.9,1.6-1.9,2.2-3.2,1.9c-1.5-0.4-2.2-1.3-2.2-3.3c-0.2,0-0.4-0.1-0.6-0.1c-1-0.2-1.9-0.3-2.9-0.5
	 		c-0.2,0-0.4,0-0.6,0c-0.2,2.2-2.2,3.1-3.6,2.5c-1.1-0.4-1.7-1.4-1.7-2.5c-0.2,0-0.4,0-0.6,0c-1,0.2-2.1,0.3-3.1,0.5
	 		c-0.2,0-0.4,0.1-0.5,0.1c-0.2,2-0.8,2.9-2.1,3.3c-1.3,0.3-2.3-0.2-3.3-1.9c-1.3,0.5-2.5,1-3.8,1.6c0.6,1.6,0.3,3-1.2,3.8
	 		c-1.2,0.6-2.2,0.3-3.6-1c-1.1,0.8-2.2,1.7-3.3,2.5c1,1.8,0.9,2.9-0.1,3.9c-1,0.9-2.2,1-3.8,0C8,14,7.2,15.1,6.4,16.2
	 		C7.7,17.6,8,18.8,7.3,20c-0.7,1.2-1.9,1.6-3.7,1.1c-0.5,1.3-1.1,2.5-1.6,3.8c1.8,1.3,2.3,2.3,1.8,3.6c-0.4,1.3-1.5,1.9-3.2,1.9
	 		C0.4,31.5,0.2,32.7,0,34c0,0.2,0,0.4,0,0.6c1.5,0,2.7,1.2,2.7,2.7c0,1.5-1.2,2.6-2.7,2.7c0,0.2,0,0.4,0,0.6c0.2,1,0.3,2.1,0.5,3.1
	 		c0,0.2,0.1,0.3,0.1,0.5c2,0.1,3,0.8,3.3,2.2c0.3,1.2-0.3,2.3-1.9,3.2c0.5,1.3,1,2.6,1.6,3.8c2.2-0.3,3.2,0,3.8,1.3
	 		c0.6,1.2,0.3,2.3-1,3.6c0.8,1.1,1.7,2.2,2.5,3.3c1.7-0.9,3-0.9,3.9,0.2c0.9,1,1,2.2,0,3.8c1.1,0.8,2.2,1.7,3.1,2.4
	 		c1-0.4,1.7-0.9,2.5-1.1c0.5-0.1,1.1,0.2,1.5,0.4c1.1,0.7,1.4,1.8,1,3.6c1.3,0.5,2.6,1.1,3.8,1.6c1.1-1.7,2.2-2.3,3.5-1.8
	 		c1.3,0.4,2,1.5,1.9,3.2c1.2,0.2,2.4,0.4,3.7,0.6c0.2,0,0.4,0,0.6,0c0-1.4,0.9-2.5,2.2-2.7c1.3-0.2,2.6,0.6,3,1.9
	 		c0.1,0.3,0.1,0.5,0.2,0.8c0.2,0,0.4,0,0.6,0c1.2-0.2,2.4-0.4,3.6-0.6c0.1-1.9,0.6-2.8,1.9-3.2c1.3-0.4,2.2,0.1,3.5,1.8
	 		c1.3-0.5,2.5-1.1,3.8-1.6c-0.5-1.8-0.2-3,1-3.7c1.2-0.8,2.2-0.5,3.8,0.9c1.1-0.8,2.2-1.7,3.3-2.6c-1-1.5-0.9-2.8,0-3.8
	 		c1-1,2.2-1,3.9-0.1c0.8-1.1,1.7-2.2,2.5-3.3c-1.3-1.4-1.6-2.4-1-3.6c0.8-1.5,2-1.7,3.8-1.3c0.5-1.3,1-2.6,1.6-3.8
	 		c-1.7-0.9-2.2-2-1.9-3.4c0.4-1.3,1.5-2,3.3-1.9c0.2-1.4,0.4-2.8,0.5-4.1C72.3,39.5,71.5,38.7,71.4,37.3z"/>
	 	<g style="fill: #000;" id="black">
	 		<path d="M103.5,4.3c4.5,0,9,0,13.5,0c0,1.8,0,3.6,0,5.5c-2.5,0-5.1,0-7.7,0c0,2.1,0,4.2,0,6.3c2.2,0,4.5,0,6.7,0
	 			c0,1.9,0,3.7,0,5.6c-2.2,0-4.5,0-6.8,0c0,2.3,0,4.4,0,6.7c2.6,0,5.1,0,7.7,0c0,1.9,0,3.7,0,5.5c-4.5,0-9,0-13.5,0
	 			C103.5,24,103.5,14.2,103.5,4.3z"/>
	 		<path d="M139.1,4.3c4.5,0,9,0,13.5,0c0,1.8,0,3.6,0,5.5c-2.5,0-5.1,0-7.7,0c0,2.1,0,4.2,0,6.3c2.2,0,4.5,0,6.7,0
	 			c0,1.9,0,3.7,0,5.6c-2.2,0-4.5,0-6.8,0c0,2.3,0,4.4,0,6.7c2.6,0,5.1,0,7.7,0c0,1.9,0,3.7,0,5.5c-4.5,0-9,0-13.5,0
	 			C139.1,24,139.1,14.2,139.1,4.3z"/>
	 		<path d="M138.7,39.9c4.5,0,9,0,13.5,0c0,1.8,0,3.6,0,5.5c-2.5,0-5.1,0-7.7,0c0,2.1,0,4.2,0,6.3c2.2,0,4.5,0,6.7,0
	 			c0,1.9,0,3.7,0,5.6c-2.2,0-4.5,0-6.8,0c0,2.3,0,4.4,0,6.7c2.6,0,5.1,0,7.7,0c0,1.9,0,3.7,0,5.5c-4.5,0-9,0-13.5,0
	 			C138.7,59.6,138.7,49.8,138.7,39.9z"/>
	 		<path d="M191.4,4.3c1.9,0,3.8,0,5.8,0c0,8,0,16,0,24c2.6,0,5.2,0,7.8,0c0,1.9,0,3.7,0,5.5c-4.5,0-9,0-13.6,0
	 			C191.4,24,191.4,14.2,191.4,4.3z"/>
	 		<path d="M196.6,39.9c1.9,0,3.8,0,5.8,0c0,8,0,16,0,24c2.6,0,5.2,0,7.8,0c0,1.9,0,3.7,0,5.5c-4.5,0-9,0-13.6,0
	 			C196.6,59.6,196.6,49.8,196.6,39.9z"/>
	 		<path d="M91.5,11.1c0.2-0.8,0.8-1.4,1.5-1.5c0.8-0.1,1.4,0.2,1.8,1.1c0.3,0.6,0.4,1.2,0.6,1.9c1.1-0.2,2.3-0.4,3.4-0.6l0,0
	 			l2.1-0.3v-0.9l0,0c0-2.2-0.8-4.5-3.3-5.8c-1.9-1-3.9-1.1-5.9-0.8c-2.9,0.4-5.1,2.2-5.8,5.1c-0.2,0.9-0.3,1.9-0.3,2.8
	 			c0,4.8,0,9.6,0,14.5c0,0.7,0.1,1.4,0.1,2c0.4,2.8,1.9,4.7,4.6,5.3c1.8,0.5,3.7,0.5,5.6,0c2.5-0.6,4.2-2.2,4.7-4.8
	 			c0.2-0.7,0.3-1.4,0.3-2.2c0-3,0-5.9,0-8.9c0-0.2,0-0.4-0.1-0.6c-2.6,0-5.1,0-7.7,0c0,1.7,0,3.3,0,5.1c0.6,0,1.2,0,1.9,0
	 			c0,1.5,0,2.9,0,4.3c0,1.2-0.7,1.8-2,1.8c-1.1,0-1.6-0.5-1.6-1.7c0-0.1,0-0.3,0-0.4c0-4.7,0-9.5,0-14.2
	 			C91.4,11.9,91.4,11.5,91.5,11.1z"/>
	 		<polygon points="130,4.3 130,18.3 124.2,4.3 119.2,4.3 119.2,33.9 125,33.9 125,19.2 130.7,33.9 135.7,33.9 135.7,4.3 		"/>
	 		<polygon points="169.8,39.9 164.7,53.8 159.6,39.9 154.1,39.9 154.1,69.5 159.9,69.5 159.9,54.7 162.8,63.7 162.8,63.7
	 			162.8,63.7 166.6,63.7 166.6,63.7 166.6,63.7 169.5,54.7 169.5,69.5 175.3,69.5 175.3,39.9 		"/>
	 		<path d="M180.7,28.7"/>
	 		<path d="M184,4.3h-7.1l-5.6,29.6h6.2l0.9-5.7l4.3,0l0.9,5.7h6.2L184,4.3z M179.1,22.6l1.3-10.7l1.3,10.7H179.1z"/>
	 		<path d="M96.4,39.9h-7.1l-5.6,29.6h6.2l0.9-5.7l4.3,0l0.9,5.7h6.2L96.4,39.9z M91.6,58.2l1.3-10.7l1.3,10.7H91.6z"/>
	 		<path d="M167.1,21c1.7-1.2,3.3-3.4,3.3-7.6c0-9.1-6.4-9-6.4-9l-3.3-0.1v0h-5.9v29.6h5.9V22.4h1.2l3.5,11.5h5.9L167.1,21z
	 			 M160.7,16.7v-7c0,0,4.1-0.6,4.1,3.5S160.7,16.7,160.7,16.7z"/>
	 		<path d="M112.9,48.3l5.7-1.2c0,0,0.6-7.5-7.2-7.5s-8,5.5-8,8.3s0.6,5.7,3.8,7.6c3.2,1.9,5.6,1.4,5.6,5.3c0,3.7-1.8,3.4-1.8,3.4
	 			s-1.9,0.2-1.9-3.2l-5.8,1.1c0,0-0.7,7.7,7.7,7.7s7.7-8.2,7.7-8.2v-3.3c0,0,0.2-4.1-4.5-6.1s-5-2.3-5-4.4s0.8-2.8,1.7-2.8
	 			S112.9,45.2,112.9,48.3z"/>
	 		<path d="M130.3,48.3l5.7-1.2c0,0,0.6-7.5-7.2-7.5s-8,5.5-8,8.3s0.6,5.7,3.8,7.6c3.2,1.9,5.6,1.4,5.6,5.3c0,3.7-1.8,3.4-1.8,3.4
	 			s-1.9,0.2-1.9-3.2l-5.8,1.1c0,0-0.7,7.7,7.7,7.7c8.5,0,7.7-8.2,7.7-8.2v-3.3c0,0,0.2-4.1-4.5-6.1c-4.6-1.9-5-2.3-5-4.4
	 			s0.8-2.8,1.7-2.8C129.3,45.1,130.3,45.2,130.3,48.3z"/>
	 		<path d="M189.8,53.9c1.7-0.6,3.3-2.2,3.3-6c0-8.1-6.7-8-6.7-8h-2.2h-1.4h-4.5v29.6h5.5h0.4h2.1c0,0,7.1,0.1,7.1-8.7
	 			C193.4,56.3,191.6,54.5,189.8,53.9z M184.3,45.4h1c0,0,2.2-0.2,2.2,2.9s-2.1,2.9-2.1,2.9s-1.1,0-1.1,0V45.4z M185.5,63.9
	 			c0,0-1.2,0-1.2,0v-7.3h1.1c0,0,2.4-0.3,2.4,3.6S185.5,63.9,185.5,63.9z"/>
	 		<polygon points="225,39.7 218.9,39.7 216.2,50.6 213.6,39.7 207.5,39.7 213.4,57.3 213.4,69.5 219.1,69.5 219.1,57.3 		"/>
	 	</g>
	 	<g style="fill: #fff;" id="white">
	 		<path class="st1" d="M49,15.7h-7.2l-5.7,43.2h6.2l1.4-10.4h3.5l1.4,10.4h6.2L49,15.7z M45.4,43.3c-1.4,0-2.6-1.2-2.6-2.6
	 			c0-1.4,1.2-2.6,2.6-2.6c1.4,0,2.6,1.2,2.6,2.6C48,42.1,46.8,43.3,45.4,43.3z"/>
	 		<path class="st1" d="M34.5,22.2c-0.2-3.8-3.3-6.8-7.2-6.8h-1.2c-4,0-7.3,3.3-7.3,7.3v0.9v0.7v24.2v0.9v3.2c0,3.7,3,6.6,6.6,6.6
	 			h2.2c3.7,0,6.6-3,6.6-6.6v-0.2v-3.9v-4.9v-0.2v-5h-7.9v5.2h2v4v0.8v3.2c0,1-0.8,1.9-1.9,1.9s-1.9-0.8-1.9-1.9v-3.2v-0.8V27.1v-2.7
	 			v-1.2c0-1.1,0.9-2,2-2s2,0.9,2,2v1.2v2.7V30h5.9v-5.6v-1.8L34.5,22.2L34.5,22.2z"/>
	 	</g>
	 </g>
</svg>
