<?xml version="1.0" encoding="utf-8"?>
<!-- Generator: Adobe Illustrator 21.1.0, SVG Export Plug-In . SVG Version: 6.00 Build 0)  -->
<svg version="1.1" id="Layer_1" xmlns="http://www.w3.org/2000/svg" xmlns:xlink="http://www.w3.org/1999/xlink" x="0px" y="0px"
	 viewBox="0 0 445.7 288" style="enable-background:new 0 0 445.7 288;" xml:space="preserve">
<g fill="#f2f2f2">
	<path d="M57.9,1.1c8.9,0,15.1,1.7,19.6,5.3c3.6,3.6,6.4,9.8,6.4,17.9v98.1H65.1V24.3c0-11.5-1.7-17.1-6.2-17.1c-2.8,0-5.3,0-7,0.8
		v113.2H33.3V20.7c0-8.1-2.8-12.6-7-12.6c-2.8,0-4.5,0-6.2,0.8v112.4H0V7.3c8.9-4.5,17.9-7,26.8-7c6.2,0,11.5,0.8,15.1,2.8
		C49.8,2,55.4,1.1,57.9,1.1z M112.4,79.4v41.9H92.8V7.3c8.9-4.5,17.9-7,25.7-7c8.9,0,15.9,1.7,20.4,5.3s6.2,9.8,6.2,17.9v98.1h-19.6
		V79.7h-13.1C112.4,79.7,112.4,79.4,112.4,79.4z M112.4,70.5H125V19.9c0-8.1-2.8-12.6-7-12.6c-2.8,0-4.5,0-6.2,0.8L112.4,70.5z
		 M187.9,55.4c-1.7-0.8-3.6-0.8-4.5-0.8h-2.8c-2.8,0-4.5,2.8-5.3,7c0,1.7-0.8,4.5-0.8,9.8v49.8h-19.6V69.6c0-8.9,2.8-15.1,8.1-18.7
		c-2.8-0.8-4.5-1.7-8.1-3.6V0h19.6v45.6c1.7,0.8,3.6,0.8,4.5,0.8c4.5,0,7-1.7,8.1-5.3c0-1.7,0.8-5.3,0.8-10.6V1.1h19.6v31.3
		c0,8.9-2.8,15.1-8.1,18.7c2.8,0.8,5.3,2.8,8.1,3.6v66.8h-19.6V55.4z M249.4,1.1h14.3v79.4c0,19.6,0.8,30.2,1.7,32.2
		c0.8,2,2.8,2.8,4.5,2.8c3.6,0,5.3-1.7,6.2-6.2V1.1h14.3v99c0,15.1-7,22.4-20.4,22.4c-5.3,0-9.8-0.8-13.4-3.6
		c-2.8,2.8-7,3.6-14.3,3.6c-9.8,0-15.9-1.7-20.4-5.3c-4.5-3.6-6.2-9.8-6.2-17.9V1.1h19.6V109c0.8,4.5,2.8,6.2,6.2,6.2
		c3.6,0,5.3-1.7,6.2-6.2v-9.8L249.4,1.1L249.4,1.1z M344.8,121.4h-19.6c-9.8,0-15.9-1.7-20.4-5.3c-4.5-3.6-6.2-8.9-6.2-17.9V0.3
		h41.9v8.9h-22.4v36.6H334V54h-15.9v41.9c0,7,0.8,11.5,1.7,13.4c0.8,1.7,3.6,2.8,8.1,2.8H343C343.4,113.2,344.8,121.4,344.8,121.4z
		 M395.7,121.4h-19.6c-9.8,0-15.9-1.7-20.4-5.3c-4.5-3.6-6.2-9.8-6.2-17.9V0.3h19.6v95.3c0,7,0.8,11.5,1.7,13.4
		c0.8,1.7,3.6,2.8,8.1,2.8H394L395.7,121.4z M445.7,121.4h-19.6c-9.8,0-15.9-1.7-20.4-5.3c-4.5-3.6-6.2-9.8-6.2-17.9V0.3h19.6v95.3
		c0,7,0.8,11.5,1.7,13.4c0.8,1.7,3.6,2.8,8.1,2.8H444L445.7,121.4z M25.7,288H0V140.1c12.6-6.2,23.2-8.9,33.8-8.9
		c12.6,0,20.4,2.8,25.7,7c5.3,4.5,8.1,12.6,8.1,22.4V288H42.8V162.5c0-7,0-11.5-0.8-13.4c-0.8-5.3-3.6-8.1-8.1-8.1
		c-2.8,0-5.3,0-8.1,0.8L25.7,288z M106,233.5v54.2H80.2V139.8c11.5-6.2,23.2-8.9,33.8-8.9c12.6,0,20.4,2.8,25.7,7
		c5.3,4.5,8.1,12.6,8.1,22.4v127.5h-25.7v-54.2L106,233.5L106,233.5z M106,222h15.9v-65.1c0-10.6-2.8-15.9-8.9-15.9
		c-2.8,0-5.3,0-8.1,0.8L106,222z M218.4,236.3c7,4.5,9.8,12.6,9.8,24V288h-25.7v-25.7c0-7,0-11.5-0.8-13.4c-0.8-5.3-3.6-8.1-8.1-8.1
		h-6.2V288h-25.7V140.1c12.6-6.2,24-8.9,33.8-8.9c12.6,0,20.4,2.8,25.7,7c5.3,4.5,8.1,12.6,8.1,22.4v50.9
		C229,222.9,225.4,231,218.4,236.3z M203.3,161.3c0-6.2,0-10.6-0.8-12.6c-0.8-5.3-3.6-8.1-8.1-8.1c-2.8,0-5.3,0.8-8.1,0.8v88.4h7
		c4.5,0,7-2.8,8.1-7c0.8-2.8,0.8-6.2,0.8-12.6L203.3,161.3z M281.6,142.6v145.1h-25.7V142.6h-18.7v-11.5h64v11.5H281.6z M370.8,288
		h-24.9c-12.6,0-21.3-2.8-25.7-7c-5.3-4.5-8.1-12.6-8.1-22.4V131.1h55.4v11.5h-29.4v48.1h21.3v10.6h-21.3v53.4
		c0,9.8,0.8,15.1,2.8,17.9c1.7,2.8,5.3,3.6,10.6,3.6H371V288H370.8z M402.9,288h-25.7V140.1c12.6-6.2,23.2-8.9,33.8-8.9
		c12.6,0,20.4,2.8,25.7,7c5.3,4.5,8.1,12.6,8.1,22.4V288h-25.7V162.5c0-7,0-11.5-0.8-13.4c-0.8-5.3-3.6-8.1-8.1-8.1
		c-2.8,0-5.3,0-8.1,0.8L402.9,288L402.9,288z"/>
</g>
</svg>
