<?xml version="1.0" encoding="utf-8"?>
<!-- Generator: Adobe Illustrator 21.1.0, SVG Export Plug-In . SVG Version: 6.00 Build 0)  -->
<svg version="1.1" id="Layer_1" xmlns="http://www.w3.org/2000/svg" xmlns:xlink="http://www.w3.org/1999/xlink" x="0px" y="0px"
	 viewBox="0 0 23.4 19" style="enable-background:new 0 0 23.4 19;" xml:space="preserve">
<g style="fill:#f2f2f2">
	<path d="M9.2,0c1.4,0,2.4,0.3,3.1,0.8s0.9,1.5,0.9,2.7V19h-2.9V3.8c0-1.8-0.3-2.6-0.9-2.6c-0.4,0-0.8,0-1.1,0.1V19H5.2V3.1
		c0-1.3-0.4-2-1.1-2c-0.4,0-0.7,0-0.9,0.2V19H0V1.1C1.4,0.3,2.8,0,4.1,0c1,0,1.8,0.1,2.4,0.4C7.8,0.1,8.6,0,9.2,0z"/>
	<path d="M18.3,19h-3.1V1.1C16.6,0.4,18,0,19.3,0c1.5,0,2.5,0.3,3.2,0.8c0.6,0.6,1,1.5,1,2.7V19h-3.1V3.8c0-0.8,0-1.4-0.1-1.6
		c-0.1-0.7-0.5-1-1-1c-0.4,0-0.7,0-0.9,0.2V19L18.3,19z"/>
</g>
</svg>
