<svg version="1.1" id="Layer_1" xmlns="http://www.w3.org/2000/svg" xmlns:xlink="http://www.w3.org/1999/xlink" x="0px" y="0px" viewBox="0 0 295.1 44.1" xml:space="preserve">
	<g style="fill:#2175d9;">
		<path class="st0" d="M272.9,28.5c-0.1-5.4,2.2-11,8.1-11c5.9,0,8.7,5.6,8.7,11.2c0,5-2.5,11.1-8.7,11.1
			C275.2,39.7,272.7,33.2,272.9,28.5 M289.9,43.4h5.2V0h-5.4v17.9h-0.1c-1.7-2.7-4.6-4.7-9.8-4.7c-8.6,0-12.7,7-12.7,14.9
			c0,8.1,3.8,16,12.7,16c5.3,0,8.6-2.6,10.1-4.8h0.1V43.4z"/>
		<path class="st0" d="M23,43.4h6.5V26.9c0-0.9-0.4-1.8-1-2.3l-9.7-9.7c-0.6-0.6-1.4-1-2.3-1H0v6.6h18c2.7,0,4.9,2.2,4.9,4.9V43.4"/>
		<path class="st0" d="M39.3,43.4h-6.6V26.9c0-0.9,0.4-1.8,1-2.3l9.7-9.7c0.6-0.6,1.4-1,2.3-1h16.5v6.6h-18c-2.7,0-4.9,2.2-4.9,4.9
			V43.4"/>
		<path class="st0" d="M91.8,13.9h5.1v4.6H97c1.4-3.1,4.6-5.3,7.7-5.3c1.6,0,2.4,0.2,3.6,0.4v4.9c-1-0.4-2.1-0.5-3-0.5
			c-4.9,0-8,4.6-8,12v13.4h-5.4V13.9"/>
		<path class="st0" d="M258,31.9c0,4.5-2.8,7.8-8.2,7.8c-2.5,0-5.5-1.7-5.5-4.8c0-5.2,7.3-5.7,10.2-5.7c1.2,0,2.3,0.1,3.5,0.1V31.9
			 M242.2,20.6c2.2-1.9,5.5-3.1,8.6-3.1c5.4,0,7.3,2.6,7.3,7.7c-2.1-0.1-3.6-0.1-5.8-0.1c-5.6,0-13.7,2.3-13.7,9.7
			c0,6.5,4.4,9.2,10.8,9.2c5,0,7.9-2.7,9.1-4.5h0.1v3.8h4.8v-18c0-8.1-3.4-12.2-11.8-12.2c-3.8,0-7,1.2-9.7,2.8L242.2,20.6z"/>
		<path class="st0" d="M126.7,31.9c0,4.5-2.8,7.8-8.2,7.8c-2.5,0-5.5-1.7-5.5-4.8c0-5.2,7.3-5.7,10.2-5.7c1.2,0,2.3,0.1,3.5,0.1V31.9
			 M110.9,20.6c2.2-1.9,5.5-3.1,8.6-3.1c5.4,0,7.3,2.6,7.3,7.7c-2.1-0.1-3.6-0.1-5.8-0.1c-5.6,0-13.7,2.3-13.7,9.7
			c0,6.5,4.5,9.2,10.8,9.2c5,0,7.9-2.7,9.1-4.5h0.1v3.8h4.8v-18c0-8.1-3.4-12.2-11.8-12.2c-3.8,0-7,1.2-9.7,2.8L110.9,20.6z"/>
		<path class="st0" d="M136.6,13.9h5.2v4.6h0.1c1.6-3.3,5.6-5.3,9.7-5.3c7.6,0,11,4.7,11,12.7v17.6h-5.4V28.1
			c0-6.9-1.5-10.3-6.3-10.5c-6.2,0-9,5-9,12.2v13.7h-5.4V13.9"/>
		<path class="st0" d="M198,37.6c2.1,1.4,5.2,2.1,6.8,2.1c2.5,0,5.5-1.1,5.5-4.2c0-5.4-12.8-4.9-12.8-13.3c0-6.1,4.6-9.1,10.4-9.1
			c2.5,0,4.6,0.5,6.8,1.2l-0.5,4.7c-1.2-0.8-4.4-1.5-5.7-1.5c-2.8,0-5.2,1.2-5.2,3.6c0,6,12.8,4.3,12.8,13.8c0,6.3-5,9.2-10.3,9.2
			c-2.8,0-5.6-0.3-8.1-1.6L198,37.6"/>
		<path class="st0" d="M236.8,18.2h-7.8v16.2c0,3.4,2.1,5.3,4.6,5.3c1.7,0,2.9-0.5,3.7-1.1v4.6c-1.2,0.3-2.9,0.8-4.6,0.8
			c-5.6,0-9-2.6-9-8.5V18.2h-6.7v-4.4h6.7V7.1l5.4-1.7v8.6h7.8V18.2"/>
		<path class="st0" d="M172.1,28.5c-0.1-5.4,2.2-11,8.1-11c5.9,0,8.7,5.6,8.7,11.2c0,5-2.5,11.1-8.7,11.1
			C174.4,39.7,172,33.2,172.1,28.5 M189.1,43.4h5.2V0h-5.4v17.9h-0.1c-1.7-2.7-4.6-4.7-9.8-4.7c-8.6,0-12.7,7-12.7,14.9
			c0,8.1,3.8,16,12.7,16c5.3,0,8.6-2.6,10.1-4.8h0.1V43.4z"/>
	</g>
</svg>
