<?xml version="1.0" encoding="utf-8"?>
<!-- Generator: Adobe Illustrator 21.1.0, SVG Export Plug-In . SVG Version: 6.00 Build 0)  -->
<svg version="1.1" id="Layer_1" xmlns="http://www.w3.org/2000/svg" xmlns:xlink="http://www.w3.org/1999/xlink" x="0px" y="0px"
	 viewBox="0 0 445.7 322.6" style="enable-background:new 0 0 445.7 322.6;" xml:space="preserve">
<g>
	<g>
		<g>
			<path d="M18.1,314.8c0,4.8-3.1,7.8-8.2,7.8c-5,0-8.3-3-8.3-7.8v-10.6h4.1v10.6c0,2.6,1.7,4.2,4.2,4.2s4.1-1.6,4.1-4.2v-10.6h4.1
				V314.8z"/>
			<path d="M35.3,306l-1.6,3.4c-1.9-1.1-4.2-1.9-5.7-1.9c-1.4,0-2.3,0.5-2.3,1.5c0,3.4,9.7,1.5,9.7,8c0,3.6-3.1,5.5-7.1,5.5
				c-3,0-6-1.1-8-2.9l1.6-3.4c1.9,1.7,4.5,2.7,6.4,2.7c1.7,0,2.7-0.6,2.7-1.7c0-3.4-9.7-1.4-9.7-7.9c0-3.3,2.8-5.4,7-5.4
				C31,304,33.5,304.8,35.3,306z"/>
			<path d="M42.4,307.6v4h8.8v3.4h-8.8v4h10v3.4H38.3v-18.2h13.9v3.4H42.4z"/>
			<path d="M64,317.2h-0.4h-3.8v5.2h-4.1v-18.2h7.9c4.8,0,7.5,2.3,7.5,6.3c0,2.8-1.2,4.8-3.4,5.9l3.9,6h-4.7L64,317.2z M63.6,313.8
				c2.3,0,3.6-1,3.6-3.1c0-2-1.3-3-3.6-3h-3.8v6.2H63.6z"/>
			<path d="M84.9,307.6v4h8.8v3.4h-8.8v4h10v3.4H80.8v-18.2h13.9v3.4H84.9z"/>
			<path d="M114.6,322.4h-4.9l-4.3-6.1l-4.2,6.1h-4.8l6.5-9.3l-6.1-8.9h4.8l3.8,5.6l3.8-5.6h4.9l-6.1,8.7L114.6,322.4z"/>
			<path d="M124.6,304.2c4.6,0,7.3,2.3,7.3,6.3c0,4.2-2.7,6.7-7.3,6.7H121v5.2h-4.1v-18.2H124.6z M121,313.8h3.4
				c2.3,0,3.6-1,3.6-3.1c0-2-1.3-3-3.6-3H121V313.8z"/>
			<path d="M138.6,307.6v4h8.8v3.4h-8.8v4h10v3.4h-14.1v-18.2h13.9v3.4H138.6z"/>
			<path d="M160.2,317.2h-0.4H156v5.2h-4.1v-18.2h7.9c4.8,0,7.5,2.3,7.5,6.3c0,2.8-1.2,4.8-3.4,5.9l3.9,6h-4.7L160.2,317.2z
				 M159.8,313.8c2.3,0,3.6-1,3.6-3.1c0-2-1.3-3-3.6-3H156v6.2H159.8z"/>
			<path d="M170.7,322.4v-18.2h4.1v18.2H170.7z"/>
			<path d="M183,307.6v4h8.8v3.4H183v4h10v3.4h-14.1v-18.2h13.9v3.4H183z"/>
			<path d="M209,322.4l-8.8-11.7v11.7h-3.9v-18.2h3.7l8.8,11.7v-11.7h3.9v18.2H209z"/>
			<path d="M232.3,307.1l-2.4,2.9c-1.2-1.4-3-2.4-4.7-2.4c-3.1,0-5.5,2.4-5.5,5.6c0,3.2,2.4,5.6,5.5,5.6c1.6,0,3.4-0.8,4.7-2.1
				l2.4,2.6c-1.9,2-4.7,3.2-7.4,3.2c-5.4,0-9.5-4-9.5-9.3c0-5.3,4.2-9.2,9.7-9.2C227.7,304.1,230.5,305.2,232.3,307.1z"/>
			<path d="M238.9,307.6v4h8.8v3.4h-8.8v4h10v3.4h-14.1v-18.2h13.9v3.4H238.9z"/>
		</g>
		<g>
			<path d="M296.3,307.6v4.5h8.2v3.4h-8.2v6.9h-4.1v-18.2h13.1l0,3.4H296.3z"/>
			<path d="M316,317.2h-0.4h-3.8v5.2h-4.1v-18.2h7.9c4.8,0,7.5,2.3,7.5,6.3c0,2.8-1.2,4.8-3.4,5.9l3.9,6h-4.7L316,317.2z
				 M315.6,313.8c2.3,0,3.6-1,3.6-3.1c0-2-1.3-3-3.6-3h-3.8v6.2H315.6z"/>
			<path d="M344.8,313.3c0,5.3-4.2,9.3-9.8,9.3s-9.8-4-9.8-9.3c0-5.3,4.2-9.2,9.8-9.2S344.8,308,344.8,313.3z M329.4,313.3
				c0,3.2,2.6,5.7,5.6,5.7s5.5-2.5,5.5-5.7s-2.5-5.6-5.5-5.6C332,307.6,329.4,310.1,329.4,313.3z"/>
			<path d="M360.2,322.4l-8.8-11.7v11.7h-3.9v-18.2h3.7l8.8,11.7v-11.7h3.9v18.2H360.2z"/>
			<path d="M375.8,307.7v14.7h-4.1v-14.7h-5.5v-3.5h15.2v3.5H375.8z"/>
			<path d="M394,307.6v4h8.8v3.4H394v4h10v3.4h-14.1v-18.2h13.9v3.4H394z"/>
			<path d="M420,322.4l-8.8-11.7v11.7h-3.9v-18.2h3.7l8.8,11.7v-11.7h3.9v18.2H420z"/>
			<path d="M435.4,304.2c5.6,0,9.6,3.7,9.6,9.1c0,5.4-4,9.1-9.7,9.1h-7.6v-18.2H435.4z M431.8,318.9h3.7c3,0,5.3-2.3,5.3-5.6
				c0-3.4-2.3-5.7-5.5-5.7h-3.5V318.9z"/>
		</g>
	</g>
	<g>
		<path d="M57.9,1.1c8.9,0,15.1,1.7,19.6,5.3c3.6,3.6,6.4,9.8,6.4,17.9v98.1H65.1V24.3c0-11.5-1.7-17.1-6.2-17.1c-2.8,0-5.3,0-7,0.8
			v113.2H33.3V20.7c0-8.1-2.8-12.6-7-12.6c-2.8,0-4.5,0-6.2,0.8v112.4H0V7.3c8.9-4.5,17.9-7,26.8-7c6.2,0,11.5,0.8,15.1,2.8
			C49.8,2,55.4,1.1,57.9,1.1z M112.4,79.4v41.9H92.8V7.3c8.9-4.5,17.9-7,25.7-7c8.9,0,15.9,1.7,20.4,5.3s6.2,9.8,6.2,17.9v98.1
			h-19.6V79.7h-13.1V79.4z M112.4,70.5H125V19.9c0-8.1-2.8-12.6-7-12.6c-2.8,0-4.5,0-6.2,0.8L112.4,70.5z M187.9,55.4
			c-1.7-0.8-3.6-0.8-4.5-0.8h-2.8c-2.8,0-4.5,2.8-5.3,7c0,1.7-0.8,4.5-0.8,9.8v49.8h-19.6V69.6c0-8.9,2.8-15.1,8.1-18.7
			c-2.8-0.8-4.5-1.7-8.1-3.6V0h19.6v45.6c1.7,0.8,3.6,0.8,4.5,0.8c4.5,0,7-1.7,8.1-5.3c0-1.7,0.8-5.3,0.8-10.6V1.1h19.6v31.3
			c0,8.9-2.8,15.1-8.1,18.7c2.8,0.8,5.3,2.8,8.1,3.6v66.8h-19.6V55.4z M249.4,1.1h14.3v79.4c0,19.6,0.8,30.2,1.7,32.2
			c0.8,2,2.8,2.8,4.5,2.8c3.6,0,5.3-1.7,6.2-6.2V1.1h14.3v99c0,15.1-7,22.4-20.4,22.4c-5.3,0-9.8-0.8-13.4-3.6
			c-2.8,2.8-7,3.6-14.3,3.6c-9.8,0-15.9-1.7-20.4-5.3c-4.5-3.6-6.2-9.8-6.2-17.9V1.1h19.6V109c0.8,4.5,2.8,6.2,6.2,6.2
			c3.6,0,5.3-1.7,6.2-6.2v-9.8L249.4,1.1L249.4,1.1z M344.8,121.4h-19.6c-9.8,0-15.9-1.7-20.4-5.3c-4.5-3.6-6.2-8.9-6.2-17.9V0.3
			h41.9v8.9h-22.4v36.6h15.9V54h-15.9v41.9c0,7,0.8,11.5,1.7,13.4c0.8,1.7,3.6,2.8,8.1,2.8h15.1
			C343.4,113.2,344.8,121.4,344.8,121.4z M395.7,121.4h-19.6c-9.8,0-15.9-1.7-20.4-5.3c-4.5-3.6-6.2-9.8-6.2-17.9V0.3h19.6v95.3
			c0,7,0.8,11.5,1.7,13.4c0.8,1.7,3.6,2.8,8.1,2.8H394L395.7,121.4z M445.7,121.4h-19.6c-9.8,0-15.9-1.7-20.4-5.3
			c-4.5-3.6-6.2-9.8-6.2-17.9V0.3h19.6v95.3c0,7,0.8,11.5,1.7,13.4c0.8,1.7,3.6,2.8,8.1,2.8H444L445.7,121.4z M25.7,288H0V140.1
			c12.6-6.2,23.2-8.9,33.8-8.9c12.6,0,20.4,2.8,25.7,7c5.3,4.5,8.1,12.6,8.1,22.4V288H42.8V162.5c0-7,0-11.5-0.8-13.4
			c-0.8-5.3-3.6-8.1-8.1-8.1c-2.8,0-5.3,0-8.1,0.8L25.7,288z M106,233.5v54.2H80.2V139.8c11.5-6.2,23.2-8.9,33.8-8.9
			c12.6,0,20.4,2.8,25.7,7c5.3,4.5,8.1,12.6,8.1,22.4v127.5h-25.7v-54.2H106z M106,222h15.9v-65.1c0-10.6-2.8-15.9-8.9-15.9
			c-2.8,0-5.3,0-8.1,0.8L106,222z M218.4,236.3c7,4.5,9.8,12.6,9.8,24V288h-25.7v-25.7c0-7,0-11.5-0.8-13.4
			c-0.8-5.3-3.6-8.1-8.1-8.1h-6.2V288h-25.7V140.1c12.6-6.2,24-8.9,33.8-8.9c12.6,0,20.4,2.8,25.7,7c5.3,4.5,8.1,12.6,8.1,22.4v50.9
			C229,222.9,225.4,231,218.4,236.3z M203.3,161.3c0-6.2,0-10.6-0.8-12.6c-0.8-5.3-3.6-8.1-8.1-8.1c-2.8,0-5.3,0.8-8.1,0.8v88.4h7
			c4.5,0,7-2.8,8.1-7c0.8-2.8,0.8-6.2,0.8-12.6L203.3,161.3z M281.6,142.6v145.1h-25.7V142.6h-18.7v-11.5h64v11.5L281.6,142.6z
			 M370.8,288h-24.9c-12.6,0-21.3-2.8-25.7-7c-5.3-4.5-8.1-12.6-8.1-22.4V131.1h55.4v11.5h-29.4v48.1h21.3v10.6h-21.3v53.4
			c0,9.8,0.8,15.1,2.8,17.9c1.7,2.8,5.3,3.6,10.6,3.6H371V288H370.8z M402.9,288h-25.7V140.1c12.6-6.2,23.2-8.9,33.8-8.9
			c12.6,0,20.4,2.8,25.7,7c5.3,4.5,8.1,12.6,8.1,22.4V288h-25.7V162.5c0-7,0-11.5-0.8-13.4c-0.8-5.3-3.6-8.1-8.1-8.1
			c-2.8,0-5.3,0-8.1,0.8L402.9,288L402.9,288z"/>
	</g>
</g>
</svg>
