<svg xmlns="http://www.w3.org/2000/svg" viewBox="0 68.2 159.4 102.9"><g fill="#111"><path d="M20.7 68.6c3.2 0 5.4.6 7 1.9C29 71.8 30 74 30 76.9V112h-6.7V76.9c0-4.1-.6-6.1-2.2-6.1-1 0-1.9 0-2.5.3v40.5h-6.7v-36c0-2.9-1-4.5-2.5-4.5-1 0-1.6 0-2.2.3v40.2H0V70.8c3.2-1.6 6.4-2.5 9.6-2.5 2.2 0 4.1.3 5.4 1 2.8-.4 4.8-.7 5.7-.7zM40.2 96.6v15h-7V70.8c3.2-1.6 6.4-2.5 9.2-2.5 3.2 0 5.7.6 7.3 1.9 1.6 1.3 2.2 3.5 2.2 6.4v35.1h-7v-15h-4.7v-.1zm0-3.2h4.5V75.3c0-2.9-1-4.5-2.5-4.5-1 0-1.6 0-2.2.3l.2 22.3zM67.2 88c-.6-.3-1.3-.3-1.6-.3h-1c-1 0-1.6 1-1.9 2.5 0 .6-.3 1.6-.3 3.5v17.8h-7V93.1c0-3.2 1-5.4 2.9-6.7-1-.3-1.6-.6-2.9-1.3V68.2h7v16.3c.6.3 1.3.3 1.6.3 1.6 0 2.5-.6 2.9-1.9 0-.6.3-1.9.3-3.8V68.6h7v11.2c0 3.2-1 5.4-2.9 6.7 1 .3 1.9 1 2.9 1.3v23.9h-7V88zM89.2 68.6h5.1V97c0 7 .3 10.8.6 11.5s1 1 1.6 1c1.3 0 1.9-.6 2.2-2.2V68.6h5.1V104c0 5.4-2.5 8-7.3 8-1.9 0-3.5-.3-4.8-1.3-1 1-2.5 1.3-5.1 1.3-3.5 0-5.7-.6-7.3-1.9-1.6-1.3-2.2-3.5-2.2-6.4V68.6h7v38.6c.3 1.6 1 2.2 2.2 2.2 1.3 0 1.9-.6 2.2-2.2v-3.5l.7-35.1zM123.3 111.6h-7c-3.5 0-5.7-.6-7.3-1.9-1.6-1.3-2.2-3.2-2.2-6.4v-35h15v3.2h-8v13.1h5.7v2.9h-5.7v15c0 2.5.3 4.1.6 4.8.3.6 1.3 1 2.9 1h5.4c.1.4.6 3.3.6 3.3zM141.5 111.6h-7c-3.5 0-5.7-.6-7.3-1.9-1.6-1.3-2.2-3.5-2.2-6.4v-35h7v34.1c0 2.5.3 4.1.6 4.8.3.6 1.3 1 2.9 1h5.4l.6 3.4zM159.4 111.6h-7c-3.5 0-5.7-.6-7.3-1.9-1.6-1.3-2.2-3.5-2.2-6.4v-35h7v34.1c0 2.5.3 4.1.6 4.8.3.6 1.3 1 2.9 1h5.4l.6 3.4zM9.2 171.2H0v-52.9c4.5-2.2 8.3-3.2 12.1-3.2 4.5 0 7.3 1 9.2 2.5 1.9 1.6 2.9 4.5 2.9 8v45.6h-8.9v-44.9c0-2.5 0-4.1-.3-4.8-.3-1.9-1.3-2.9-2.9-2.9-1 0-1.9 0-2.9.3v52.3zM37.9 151.7v19.4h-9.2v-52.9c4.1-2.2 8.3-3.2 12.1-3.2 4.5 0 7.3 1 9.2 2.5 1.9 1.6 2.9 4.5 2.9 8v45.6h-9.2v-19.4h-5.8zm0-4.1h5.7v-23.3c0-3.8-1-5.7-3.2-5.7-1 0-1.9 0-2.9.3l.4 28.7zM78.1 152.7c2.5 1.6 3.5 4.5 3.5 8.6v9.9h-9.2V162c0-2.5 0-4.1-.3-4.8-.3-1.9-1.3-2.9-2.9-2.9H67v16.9h-9.2v-52.9c4.5-2.2 8.6-3.2 12.1-3.2 4.5 0 7.3 1 9.2 2.5 1.9 1.6 2.9 4.5 2.9 8v18.2c-.1 4.1-1.4 7-3.9 8.9zm-5.4-26.8c0-2.2 0-3.8-.3-4.5-.3-1.9-1.3-2.9-2.9-2.9-1 0-1.9.3-2.9.3v31.6h2.5c1.6 0 2.5-1 2.9-2.5.3-1 .3-2.2.3-4.5l.4-17.5zM100.7 119.2v51.9h-9.2v-51.9h-6.7v-4.1h22.9v4.1h-7zM132.6 171.2h-8.9c-4.5 0-7.6-1-9.2-2.5-1.9-1.6-2.9-4.5-2.9-8v-45.6h19.8v4.1h-10.5v17.2h7.6v3.8h-7.6v19.1c0 3.5.3 5.4 1 6.4.6 1 1.9 1.3 3.8 1.3h7v4.2h-.1zM144.1 171.2h-9.2v-52.9c4.5-2.2 8.3-3.2 12.1-3.2 4.5 0 7.3 1 9.2 2.5 1.9 1.6 2.9 4.5 2.9 8v45.6h-9.2v-44.9c0-2.5 0-4.1-.3-4.8-.3-1.9-1.3-2.9-2.9-2.9-1 0-1.9 0-2.9.3l.3 52.3z"/></g></svg>