<svg xmlns="http://www.w3.org/2000/svg" viewBox="0 0 185.8 157.4"><g fill="#F1F2F2"><path d="M75.9 0C87.6 0 96 2.3 101.2 7c5.2 4.7 7.8 12.2 7.8 22.6v127.8H85V31.1c0-14.6-2.5-21.9-7.6-21.9-3.7 0-6.6.4-8.8 1.2v147.1H43.2v-132c0-10.9-3.1-16.3-9.2-16.3-3.1 0-5.7.4-7.8 1.3v147H0V8.8C11.7 2.9 23.2 0 34.4 0c8.4 0 15 1.2 19.9 3.7C64.5 1.2 71.7 0 75.9 0zM143.5 157.4h-25.9V8.9C129.6 3 141 0 151.7 0c12.2 0 20.9 2.3 26.2 6.9 5.3 4.6 7.9 12.2 7.9 22.7v127.8h-25.9v-126c0-6.8-.2-11.3-.7-13.5-1.2-5.7-3.8-8.5-8-8.5-3 0-5.6.4-7.7 1.3v146.7z"/></g></svg>